Harry Potter And The Deathly Hallows Part 1.2010.TS. XViD - DiNKY

Format : AVI
Format/Info : Audio Video Interleave
File size : 728 MiB
Duration : 2h 9mn
Overall bit rate : 788 Kbps
Writing application : VirtualDubMod 1.5.10.2 (build 2542/release)
Writing library : VirtualDubMod build 2542/release

Video
ID : 0
Format : MPEG-4 Visual
Format profile : Advanced Simple@L5
Format settings, BVOP : Yes
Format settings, QPel : No
Format settings, GMC : No warppoints
Format settings, Matrix : Default (H.263)
Muxing mode : Packed bitstream
Codec ID : XVID
Codec ID/Hint : XviD
Duration : 2h 9mn
Bit rate : 650 Kbps
Width : 712 pixels
Height : 300 pixels
Display aspect ratio : 2.35:1
Frame rate : 25.000 fps
Color space : YUV
Chroma subsampling : 4:2:0
Bit depth : 8 bits
Scan type : Progressive
Bits/(Pixel*Frame) : 0.122
Stream size : 601 MiB (83%)
Writing library : XviD 1.2.1 (UTC 2008-12-04)

Audio
ID : 1
Format : MPEG Audio
Format version : Version 1
Format profile : Layer 3
Codec ID : 55
Codec ID/Hint : MP3
Duration : 2h 9mn
Bit rate mode : Constant
Bit rate : 128 Kbps
Channel(s) : 2 channels
Sampling rate : 44.1 KHz
Stream size : 118 MiB (16%)
Alignment : Split accross interleaves
Interleave, duration : 40 ms (1.00 video frame)
Interleave, preload duration : 500 ms

screens  
http://img7.imageshack.us/img7/4479/p2qae.png 
http://img337.imageshack.us/img337/8915/pcopx.png 
http://img403.imageshack.us/img403/7199/qxc7d.png 
http://img593.imageshack.us/img593/9476/slvq8.png 
http://img88.imageshack.us/img88/5097/sxnw2.png 
http://img813.imageshack.us/img813/6972/tticg.png 
http://img232.imageshack.us/i/zmfov.png/


Thanks to
PFD for the video
IMAGiNE for the audio

and to all p2p groups old and new